:SAMPLES-PER-SECOND 30
:FULLY-SPECIFIED
:DEGREES
111
root  34.98536358 36.48628475 -14.73039492 11.93716145 12.89391613 4.914871216
lowerback  -8.588330269 3.105609894 3.541229486
upperback  -4.606269836 3.496599913 -4.707149982
thorax  0.5342220068 1.469570041 -6.588210106
lowerneck  -15.02330017 -4.97672987 -1.780300021
upperneck  11.24380016 -7.537529945 6.943399906
head  6.218200207 -3.260449648 1.748399973
lclavicle  0 -4.497500157e-015 -2.743230041e-014
lhumerus  -42.97779846 27.97299957 67.76180267
lradius  -0.1005838141 -6.507048965e-006 25.6807003
lwrist  4.824992743e-007 -3.790274832e-007 -35.1114006
lhand  -4.401264094e-031 -36.64989853 -10.69419956
lfingers  90 7.125020027 -90
lthumb  94.70286272 -25.53851019 100.8032285
rclavicle  0 -4.497500157e-015 -2.743230041e-014
rhumerus  60.12559891 -9.171890259 -55.00400162
rradius  -5.16745672e-007 2.214343908e-008 49.1271019
rwrist  1.380293725e-006 2.528095422e-007 -162.2149963
rhand  -1.771065158e-031 4.517710209 -5.952439785
rfingers  -90 -7.125020027 -90
rthumb  -84.23601832 -9.903200934 -59.59040488
rfemur  -14.40947151 10.51088905 14.46456814
rtibia  -3.257591486 2.262729883 24.30178833
rfoot  -2.844605684 -13.87635899 -45.23736954
rtoes  4.12918766 19.58620463 -102.1534222
lfemur  -12.47752571 -23.11117172 -18.86842537
ltibia  3.575735331 2.504453182 14.64379215
lfoot  0.7350131869 -29.86748695 28.85389328
ltoes  -8.482834951 -18.17899878 -115.5500565
112
root  34.98406298 36.48385776 -14.73030931 11.97937012 13.02974606 4.96210289
lowerback  -8.592870712 3.149310112 3.578260422
upperback  -4.581329823 3.556129932 -4.730790138
thorax  0.5745609999 1.501839995 -6.627540112
lowerneck  -15.05060005 -5.072889805 -1.800670028
upperneck  11.20969963 -7.663110256 6.958620071
head  6.219069958 -3.321310282 1.742959857
lclavicle  0 -4.497500157e-015 -2.743230041e-014
lhumerus  -42.90869904 27.95910072 67.75769806
lradius  -0.1010043249 -6.507048965e-006 25.65519714
lwrist  4.824992743e-007 -3.790274832e-007 -35.26760101
lhand  -4.402459248e-031 -36.67079926 -10.71790028
lfingers  90 7.125020027 -90
lthumb  94.71760771 -25.56101271 100.8277603
rclavicle  0 -4.497500157e-015 -2.743230041e-014
rhumerus  60.66400146 -9.400270462 -54.9695015
rradius  -5.16745672e-007 2.214343908e-008 48.32099915
rwrist  1.380293725e-006 2.528095422e-007 -161.8300018
rhand  -0 4.259829998 -5.772789955
rfingers  -90 -7.125020027 -90
rthumb  -84.20963152 -10.04506132 -59.82698361
rfemur  -14.44399834 10.42724895 14.46069241
rtibia  -3.301320076 2.232262611 24.3557415
rfoot  -2.882485867 -13.87150192 -45.28635406
rtoes  4.137385143 19.58453966 -102.1778769
lfemur  -12.52007294 -23.2155571 -18.87925148
ltibia  3.588121176 2.511852026 14.63593578
lfoot  0.7516323924 -29.87108421 28.83205223
ltoes  -8.471400572 -18.18418778 -115.5134113
113
root  34.98399389 36.48275841 -14.7311954 12.02035904 13.15192223 4.985082626
lowerback  -8.683540344 3.212749958 3.63863945
upperback  -4.492340088 3.643810034 -4.786799908
thorax  0.736496985 1.553990006 -6.706439972
lowerneck  -15.09780025 -5.194250107 -1.867990017
upperneck  11.09689999 -7.825550079 7.080239773
head  6.206600189 -3.396310329 1.774760127
lclavicle  0 -4.497500157e-015 -2.743230041e-014
lhumerus  -42.72529984 28.08580017 67.71050262
lradius  -0.1014250815 -6.507048965e-006 25.55610085
lwrist  4.824992743e-007 -3.790274832e-007 -35.58150101
lhand  -0 -36.64609909 -10.67959976
lfingers  90 7.125020027 -90
lthumb  94.69805158 -25.52427044 100.7978726
rclavicle  0 -4.497500157e-015 -2.743230041e-014
rhumerus  61.52099991 -9.767279625 -55.75590134
rradius  -5.16745672e-007 2.214343908e-008 47.22579956
rwrist  1.380293725e-006 2.528095422e-007 -160.7879944
rhand  -1.770169652e-031 4.134659767 -5.91203022
rfingers  -90 -7.125020027 -90
rthumb  -84.31228334 -9.918152404 -59.96177989
rfemur  -14.48153114 10.34261322 14.46657467
rtibia  -3.33421278 2.225683212 24.38938904
rfoot  -2.90465951 -13.83219242 -45.31981659
rtoes  4.145581786 19.5828714 -102.2023311
lfemur  -12.63626957 -23.3653183 -18.83794403
ltibia  3.55305624 2.497858047 14.7345314
lfoot  0.770585537 -29.87023544 28.83963013
ltoes  -8.464479844 -18.18732424 -115.4912365
114
root  34.9829486 36.48000101 -14.73173457 12.06497574 13.28093052 5.044185638
lowerback  -8.715221405 3.26376009 3.725130796
upperback  -4.457459927 3.709830046 -4.817530155
thorax  0.8067690134 1.590299964 -6.779469967
lowerneck  -15.07419968 -5.289299965 -1.926450014
upperneck  11.01200008 -7.947740555 7.152599812
head  6.186850071 -3.455750227 1.795210004
lclavicle  0 -4.497500157e-015 -2.743230041e-014
lhumerus  -42.62810135 28.05109787 67.73889923
lradius  -0.1018448323 -6.507048965e-006 25.51370239
lwrist  4.824992743e-007 -3.790274832e-007 -35.54109955
lhand  -4.400852762e-031 -36.6427002 -10.64449978
lfingers  90 7.125020027 -90
lthumb  94.68919206 -25.48996077 100.791116
rclavicle  0 -4.497500157e-015 -2.743230041e-014
rhumerus  62.02039719 -9.96158886 -55.81349945
rradius  -5.16745672e-007 2.214343908e-008 46.50379944
rwrist  1.380293725e-006 2.528095422e-007 -160.0890045
rhand  -0 4.397830009 -5.803209782
rfingers  -90 -7.125020027 -90
rthumb  -84.18997383 -10.02578989 -59.69453654
rfemur  -14.52312279 10.27740765 14.45038033
rtibia  -3.380729198 2.187863111 24.4626255
rfoot  -2.960932016 -13.84448719 -45.39038849
rtoes  4.164633308 19.57898044 -102.2591779
lfemur  -12.65397739 -23.47506332 -18.87073517
ltibia  3.582251787 2.511558056 14.6835537
lfoot  0.7873988748 -29.87081528 28.83104134
ltoes  -8.480561392 -18.18003123 -115.5427693
115
root  34.98267226 36.47874246 -14.73228274 12.0806694 13.41058826 5.075809002
lowerback  -8.717848778 3.298399687 3.740619421
upperback  -4.464690208 3.755300045 -4.820670128
thorax  0.8084229827 1.613019943 -6.786719799
lowerneck  -15.01889992 -5.379499912 -1.994510055
upperneck  10.96100044 -8.051179886 7.158430099
head  6.169020176 -3.510449648 1.798740029
lclavicle  0 -4.497500157e-015 -2.743230041e-014
lhumerus  -42.63240051 28.03759956 67.7602005
lradius  -0.1022623554 -6.507048965e-006 25.51459885
lwrist  4.824992743e-007 -3.790274832e-007 -35.42879868
lhand  -4.415756863e-031 -36.90190125 -10.64080048
lfingers  90 7.125020027 -90
lthumb  94.80967357 -25.47720897 101.0679183
rclavicle  0 -4.497500157e-015 -2.743230041e-014
rhumerus  62.40710068 -10.05599976 -55.53219986
rradius  -5.16745672e-007 2.214343908e-008 45.94120026
rwrist  1.380293725e-006 2.528095422e-007 -159.5119934
rhand  -1.770763393e-031 4.392399788 -5.688370228
rfingers  -90 -7.125020027 -90
rthumb  -84.13249605 -10.12464082 -59.68947687
rfemur  -14.53121853 10.22079468 14.45973587
rtibia  -3.412494898 2.180099249 24.50755119
rfoot  -2.987767458 -13.82391167 -45.43350601
rtoes  4.156970481 19.5805477 -102.2363119
lfemur  -12.70615864 -23.55355644 -18.8676796
ltibia  3.569102049 2.506851912 14.72790718
lfoot  0.7818861008 -29.88014412 28.75766563
ltoes  -8.470718292 -18.18449713 -115.511225
116
root  34.9820535 36.4771505 -14.73214908 12.10205364 13.54790401 5.130548
lowerback  -8.744210243 3.323200226 3.755509615
upperback  -4.453340054 3.789299965 -4.809949875
thorax  0.8398939967 1.632210016 -6.778570175
lowerneck  -14.99880028 -5.459969997 -2.024539948
upperneck  10.8980999 -8.141900063 7.128389835
head  6.148698807 -3.559113026 1.786378264
lclavicle  0 -4.497500157e-015 -2.743230041e-014
lhumerus  -42.62400055 28.13010025 67.70980072
lradius  -0.1026764065 -6.507048965e-006 25.46109581
lwrist  4.824992743e-007 -3.790274832e-007 -35.55149841
lhand  -4.412612917e-031 -36.84749985 -10.31579971
lfingers  90 7.125020027 -90
lthumb  94.71563725 -25.16011269 100.9804015
rclavicle  0 -4.497500157e-015 -2.743230041e-014
rhumerus  63.21849823 -10.27799988 -56.53110123
rradius  -5.16745672e-007 2.214343908e-008 44.8810997
rwrist  1.380293725e-006 2.528095422e-007 -158.1100006
rhand  -0 4.399310112 -5.553919792
rfingers  -90 -7.125020027 -90
rthumb  -84.0617661 -10.24101557 -59.67051149
rfemur  -14.5463686 10.17336464 14.44997883
rtibia  -3.456326962 2.180164576 24.57779121
rfoot  -3.019531727 -13.76014614 -45.47288895
rtoes  4.159773165 19.57997482 -102.2446749
lfemur  -12.68191147 -23.61560822 -18.91808701
ltibia  3.601864338 2.514719486 14.66492939
lfoot  0.7825021744 -29.87076759 28.69524956
ltoes  -8.505497192 -18.16868879 -115.6227148
117
root  34.98093312 36.47623137 -14.73265821 12.13156509 13.67527771 5.168946266
lowerback  -8.795630455 3.341639996 3.735100269
upperback  -4.421050072 3.818259954 -4.800220013
thorax  0.9041399956 1.651039958 -6.750040054
lowerneck  -15.03660011 -5.538410187 -2.108829975
upperneck  10.8987999 -8.240389824 7.191500187
head  6.162754536 -3.604281187 1.811157227
lclavicle  0 -4.497500157e-015 -2.743230041e-014
lhumerus  -42.56560135 28.2159996 67.68099976
lradius  -0.1030857414 -6.507048965e-006 25.4029007
lwrist  4.824992743e-007 -3.790274832e-007 -35.58909988
lhand  -4.40773468e-031 -36.76279831 -10.4211998
lfingers  90 7.125020027 -90
lthumb  94.69857074 -25.26647548 100.899428
rclavicle  0 -4.497500157e-015 -2.743230041e-014
rhumerus  63.71109772 -10.47289944 -56.83670044
rradius  -5.16745672e-007 2.214343908e-008 44.20249939
rwrist  1.380293725e-006 2.528095422e-007 -157.5070038
rhand  -1.770509403e-031 4.284060001 -5.584770203
rfingers  -90 -7.125020027 -90
rthumb  -84.10736932 -10.20873907 -59.78628384
rfemur  -14.56792736 10.10363865 14.45234489
rtibia  -3.488552809 2.18694973 24.63088036
rfoot  -3.052993298 -13.70954609 -45.51662064
rtoes  4.142246312 19.58355069 -102.1923796
lfemur  -12.67521286 -23.62339211 -18.93948746
ltibia  3.631325722 2.550065756 14.60469341
lfoot  0.7829033136 -29.91475868 28.61213493
ltoes  -8.499914004 -18.17123199 -115.6048106
118
root  34.98133862 36.47494579 -14.7329751 12.15116787 13.78151608 5.214056015
lowerback  -8.84428978 3.358880043 3.734820127
upperback  -4.393760204 3.843499899 -4.796360016
thorax  0.9627169967 1.667160034 -6.739990234
lowerneck  -15.06029987 -5.597640038 -2.179419994
upperneck  10.88440037 -8.315770149 7.259359837
head  6.176280022 -3.639319897 1.831590176
lclavicle  0 -4.497500157e-015 -2.743230041e-014
lhumerus  -42.52980042 28.24600029 67.67890167
lradius  -0.1034891382 -6.507048965e-006 25.38219833
lwrist  4.824992743e-007 -3.790274832e-007 -35.56999969
lhand  -0 -36.7322998 -10.56270027
lfingers  90 7.125020027 -90
lthumb  94.71398143 -25.40646542 100.8795404
rclavicle  0 -4.497500157e-015 -2.743230041e-014
rhumerus  64.46559906 -10.64830017 -57.71569824
rradius  -5.16745672e-007 2.214343908e-008 43.29190063
rwrist  1.380293725e-006 2.528095422e-007 -156.2350006
rhand  -0 4.401539803 -5.672420025
rfingers  -90 -7.125020027 -90
rthumb  -84.12197539 -10.13885928 -59.67910735
rfemur  -14.58026695 10.04493999 14.4424324
rtibia  -3.5230515 2.166702747 24.6821785
rfoot  -3.092690706 -13.70042896 -45.56856918
rtoes  4.104270595 19.5912442 -102.079102
lfemur  -12.65659046 -23.68892288 -18.98333931
ltibia  3.65371418 2.551173925 14.56195259
lfoot  0.7765309215 -29.90459824 28.55155563
ltoes  -8.493810947 -18.17400961 -115.5852421
